<?xml version="1.0" encoding="utf-8"?>
<!-- Generator: Adobe Illustrator 17.1.0, SVG Export Plug-In . SVG Version: 6.00 Build 0)  -->
<!DOCTYPE svg PUBLIC "-//W3C//DTD SVG 1.1//EN" "http://www.w3.org/Graphics/SVG/1.1/DTD/svg11.dtd">
<svg version="1.1" id="Layer_1" xmlns="http://www.w3.org/2000/svg" xmlns:xlink="http://www.w3.org/1999/xlink" x="0px" y="0px"
	 viewBox="99.2 1.1 9 9" enable-background="new 99.2 1.1 9 9" xml:space="preserve">
<g>
	<path fill="#213F99" d="M102.7,8.2c2.3,0,3.6-1.9,3.6-3.6c0,0,0-0.1,0-0.2c0.2-0.2,0.5-0.4,0.6-0.6c-0.2,0.1-0.5,0.2-0.7,0.2
		c0.3-0.2,0.5-0.4,0.5-0.7c-0.2,0.1-0.5,0.2-0.8,0.3c-0.2-0.2-0.6-0.4-0.9-0.4c-0.7,0-1.3,0.6-1.3,1.3c0,0.1,0,0.2,0,0.3
		c-1-0.1-2-0.6-2.6-1.3c-0.1,0.2-0.2,0.4-0.2,0.6c0,0.4,0.2,0.8,0.6,1c-0.2,0-0.4-0.1-0.6-0.2l0,0c0,0.6,0.4,1.1,1,1.2
		c-0.1,0-0.2,0-0.3,0c-0.1,0-0.2,0-0.2,0c0.2,0.5,0.6,0.9,1.2,0.9c-0.4,0.3-1,0.5-1.6,0.5c-0.1,0-0.2,0-0.3,0
		C101.3,8.1,102,8.2,102.7,8.2"/>
</g>
</svg>
